<svg width="850" height="192" viewBox="0 0 850 192" fill="none" xmlns="http://www.w3.org/2000/svg">
<g opacity="0.6">
<g clip-path="url(#clip0_294_12451)">
<path d="M521.282 -66.7773C530.169 -56.2718 535.752 -43.2815 540.705 -30.442C545.657 -17.6026 551.042 -4.81124 560.569 5.11727C570.1 15.0501 582.288 21.4716 594.83 27.1452C607.373 32.8188 619.56 39.2403 629.091 49.1731C638.618 59.1016 644.003 71.893 648.956 84.7324C653.908 97.5719 659.491 110.562 668.378 121.068" stroke="#E7FF30" stroke-opacity="0.1" stroke-width="1.97577"/>
<path d="M492.489 -39.7148C501.376 -29.2093 506.959 -16.219 511.912 -3.37952C516.865 9.45993 522.249 22.2513 531.776 32.1798C541.307 42.1126 553.495 48.5341 566.037 54.2077C578.58 59.8813 590.767 66.3028 600.298 76.2356C609.825 86.1641 615.21 98.9555 620.163 111.795C625.115 124.634 630.698 137.625 639.585 148.13" stroke="#E7FF30" stroke-opacity="0.1" stroke-width="1.97577"/>
<path d="M463.696 -12.6523C472.584 -2.14682 478.166 10.8435 483.119 23.683C488.072 36.5224 493.456 49.3138 502.983 59.2423C512.514 69.1751 524.702 75.5966 537.244 81.2702C549.787 86.9438 561.974 93.3653 571.505 103.298C581.032 113.227 586.417 126.018 591.37 138.857C596.322 151.697 601.905 164.687 610.792 175.193" stroke="#E7FF30" stroke-opacity="0.1" stroke-width="1.97577"/>
<path d="M434.904 14.4102C443.791 24.9157 449.373 37.906 454.326 50.7455C459.279 63.5849 464.663 76.3763 474.19 86.3048C483.721 96.2376 495.909 102.659 508.451 108.333C520.994 114.006 533.181 120.428 542.712 130.361C552.239 140.289 557.624 153.08 562.577 165.92C567.529 178.759 573.112 191.75 581.999 202.255" stroke="#E7FF30" stroke-opacity="0.1" stroke-width="1.97577"/>
</g>
<g clip-path="url(#clip1_294_12451)">
<path d="M636.458 -175.027C645.345 -164.522 650.928 -151.531 655.881 -138.692C660.833 -125.853 666.218 -113.061 675.745 -103.133C685.276 -93.1999 697.464 -86.7784 710.006 -81.1048C722.548 -75.4312 734.736 -69.0097 744.267 -59.0769C753.794 -49.1484 759.179 -36.357 764.131 -23.5176C769.084 -10.6781 774.667 2.31223 783.554 12.8178" stroke="#E7FF30" stroke-opacity="0.1" stroke-width="1.97577"/>
<path d="M607.665 -147.965C616.552 -137.459 622.135 -124.469 627.088 -111.63C632.04 -98.7901 637.425 -85.9987 646.952 -76.0702C656.483 -66.1374 668.671 -59.7159 681.213 -54.0423C693.755 -48.3687 705.943 -41.9472 715.474 -32.0144C725.001 -22.0859 730.386 -9.29454 735.338 3.54491C740.291 16.3844 745.874 29.3747 754.761 39.8802" stroke="#E7FF30" stroke-opacity="0.1" stroke-width="1.97577"/>
<path d="M578.872 -120.902C587.759 -110.397 593.342 -97.4065 598.295 -84.567C603.247 -71.7276 608.632 -58.9362 618.159 -49.0077C627.69 -39.0749 639.878 -32.6534 652.42 -26.9798C664.962 -21.3062 677.15 -14.8847 686.681 -4.95188C696.208 4.97663 701.593 17.768 706.545 30.6074C711.498 43.4469 717.081 56.4372 725.968 66.9427" stroke="#E7FF30" stroke-opacity="0.1" stroke-width="1.97577"/>
<path d="M550.079 -93.8398C558.966 -83.3343 564.549 -70.344 569.502 -57.5045C574.454 -44.6651 579.839 -31.8737 589.366 -21.9452C598.897 -12.0124 611.085 -5.59086 623.627 0.0826972C636.169 5.75625 648.357 12.1778 657.888 22.1106C667.415 32.0391 672.8 44.8305 677.753 57.6699C682.705 70.5094 688.288 83.4997 697.175 94.0052" stroke="#E7FF30" stroke-opacity="0.1" stroke-width="1.97577"/>
</g>
<g clip-path="url(#clip2_294_12451)">
<path d="M406.111 41.4727C414.998 51.9782 420.58 64.9685 425.533 77.808C430.486 90.6474 435.87 103.439 445.397 113.367C454.928 123.3 467.116 129.722 479.658 135.395C492.201 141.069 504.388 147.49 513.919 157.423C523.446 167.352 528.831 180.143 533.784 192.982C538.736 205.822 544.319 218.812 553.206 229.318" stroke="#E7FF30" stroke-opacity="0.1" stroke-width="1.97577"/>
<path d="M377.318 68.5352C386.205 79.0407 391.787 92.031 396.74 104.87C401.693 117.71 407.077 130.501 416.604 140.43C426.135 150.363 438.323 156.784 450.865 162.458C463.408 168.131 475.596 174.553 485.126 184.486C494.653 194.414 500.038 207.205 504.991 220.045C509.944 232.884 515.526 245.875 524.413 256.38" stroke="#E7FF30" stroke-opacity="0.1" stroke-width="1.97577"/>
<path d="M348.525 95.5977C357.412 106.103 362.994 119.094 367.947 131.933C372.9 144.772 378.284 157.564 387.811 167.492C397.342 177.425 409.53 183.847 422.072 189.52C434.615 195.194 446.803 201.615 456.334 211.548C465.86 221.477 471.245 234.268 476.198 247.107C481.151 259.947 486.733 272.937 495.62 283.443" stroke="#E7FF30" stroke-opacity="0.1" stroke-width="1.97577"/>
<path d="M319.732 122.66C328.619 133.166 334.201 146.156 339.154 158.995C344.107 171.835 349.491 184.626 359.018 194.555C368.549 204.488 380.737 210.909 393.279 216.583C405.822 222.256 418.01 228.678 427.541 238.611C437.067 248.539 442.452 261.33 447.405 274.17C452.358 287.009 457.94 300 466.827 310.505" stroke="#E7FF30" stroke-opacity="0.1" stroke-width="1.97577"/>
</g>
<g clip-path="url(#clip3_294_12451)">
<path d="M859.884 -168.105C868.771 -157.6 874.354 -144.61 879.306 -131.77C884.259 -118.931 889.644 -106.139 899.171 -96.2109C908.702 -86.278 920.889 -79.8565 933.432 -74.1829C945.974 -68.5094 958.162 -62.0878 967.693 -52.155C977.22 -42.2265 982.604 -29.4352 987.557 -16.5957C992.51 -3.75626 998.093 9.23411 1006.98 19.7396" stroke="#E7FF30" stroke-opacity="0.1" stroke-width="1.97577"/>
<path d="M831.091 -141.043C839.978 -130.537 845.561 -117.547 850.513 -104.708C855.466 -91.8682 860.851 -79.0769 870.378 -69.1484C879.909 -59.2155 892.096 -52.794 904.639 -47.1204C917.181 -41.4469 929.369 -35.0253 938.9 -25.0925C948.427 -15.164 953.812 -2.37266 958.764 10.4668C963.717 23.3062 969.3 36.2966 978.187 46.8021" stroke="#E7FF30" stroke-opacity="0.1" stroke-width="1.97577"/>
<path d="M802.298 -113.98C811.185 -103.475 816.768 -90.4846 821.72 -77.6451C826.673 -64.8057 832.058 -52.0144 841.585 -42.0859C851.116 -32.153 863.304 -25.7315 875.846 -20.0579C888.388 -14.3844 900.576 -7.96283 910.107 1.97C919.634 11.8985 925.019 24.6898 929.971 37.5293C934.924 50.3687 940.507 63.3591 949.394 73.8646" stroke="#E7FF30" stroke-opacity="0.1" stroke-width="1.97577"/>
<path d="M773.505 -86.918C782.392 -76.4124 787.975 -63.4221 792.927 -50.5826C797.88 -37.7432 803.265 -24.9519 812.792 -15.0234C822.323 -5.09053 834.511 1.33102 847.053 7.00457C859.595 12.6781 871.783 19.0997 881.314 29.0325C890.841 38.961 896.226 51.7523 901.178 64.5918C906.131 77.4312 911.714 90.4216 920.601 100.927" stroke="#E7FF30" stroke-opacity="0.1" stroke-width="1.97577"/>
</g>
<g clip-path="url(#clip4_294_12451)">
<path d="M629.536 48.3984C638.423 58.904 644.006 71.8943 648.959 84.7338C653.911 97.5732 659.296 110.365 668.823 120.293C678.354 130.226 690.542 136.647 703.084 142.321C715.626 147.995 727.814 154.416 737.345 164.349C746.872 174.277 752.257 187.069 757.21 199.908C762.162 212.748 767.745 225.738 776.632 236.244" stroke="#E7FF30" stroke-opacity="0.1" stroke-width="1.97577"/>
<path d="M600.743 75.4609C609.63 85.9665 615.213 98.9568 620.166 111.796C625.118 124.636 630.503 137.427 640.03 147.356C649.561 157.288 661.749 163.71 674.291 169.383C686.833 175.057 699.021 181.479 708.552 191.411C718.079 201.34 723.464 214.131 728.417 226.971C733.369 239.81 738.952 252.801 747.839 263.306" stroke="#E7FF30" stroke-opacity="0.1" stroke-width="1.97577"/>
<path d="M571.95 102.523C580.837 113.029 586.42 126.019 591.373 138.859C596.325 151.698 601.71 164.49 611.237 174.418C620.768 184.351 632.956 190.772 645.498 196.446C658.04 202.12 670.228 208.541 679.759 218.474C689.286 228.402 694.671 241.194 699.624 254.033C704.576 266.873 710.159 279.863 719.046 290.369" stroke="#E7FF30" stroke-opacity="0.1" stroke-width="1.97577"/>
<path d="M543.157 129.586C552.044 140.091 557.627 153.082 562.58 165.921C567.532 178.761 572.917 191.552 582.444 201.481C591.975 211.413 604.163 217.835 616.705 223.508C629.248 229.182 641.435 235.604 650.966 245.536C660.493 255.465 665.878 268.256 670.831 281.096C675.783 293.935 681.366 306.926 690.253 317.431" stroke="#E7FF30" stroke-opacity="0.1" stroke-width="1.97577"/>
</g>
<g clip-path="url(#clip5_294_12451)">
<path d="M160.814 -161.812C169.701 -151.307 175.283 -138.317 180.236 -125.477C185.189 -112.638 190.573 -99.8464 200.1 -89.9179C209.631 -79.9851 221.819 -73.5635 234.361 -67.89C246.904 -62.2164 259.092 -55.7949 268.623 -45.862C278.149 -35.9335 283.534 -23.1422 288.487 -10.3027C293.44 2.5367 299.022 15.5271 307.909 26.0326" stroke="#E7FF30" stroke-opacity="0.1" stroke-width="1.97577"/>
<path d="M132.021 -134.75C140.908 -124.244 146.49 -111.254 151.443 -98.4147C156.396 -85.5752 161.78 -72.7839 171.307 -62.8554C180.838 -52.9226 193.026 -46.501 205.568 -40.8275C218.111 -35.1539 230.299 -28.7324 239.83 -18.7995C249.357 -8.87103 254.741 3.92031 259.694 16.7598C264.647 29.5992 270.229 42.5896 279.116 53.0951" stroke="#E7FF30" stroke-opacity="0.1" stroke-width="1.97577"/>
<path d="M103.228 -107.688C112.115 -97.182 117.697 -84.1916 122.65 -71.3522C127.603 -58.5127 132.988 -45.7214 142.514 -35.7929C152.045 -25.8601 164.233 -19.4385 176.776 -13.765C189.318 -8.09141 201.506 -1.66986 211.037 8.26296C220.564 18.1915 225.948 30.9828 230.901 43.8223C235.854 56.6617 241.436 69.6521 250.323 80.1576" stroke="#E7FF30" stroke-opacity="0.1" stroke-width="1.97577"/>
</g>
<g clip-path="url(#clip6_294_12451)">
<path d="M744.708 -59.8555C753.595 -49.3499 759.178 -36.3596 764.131 -23.5201C769.083 -10.6807 774.468 2.11063 783.995 12.0391C793.526 21.972 805.714 28.3935 818.256 34.0671C830.798 39.7406 842.986 46.1622 852.517 56.095C862.044 66.0235 867.429 78.8148 872.381 91.6543C877.334 104.494 882.917 117.484 891.804 127.99" stroke="#E7FF30" stroke-opacity="0.1" stroke-width="1.97577"/>
<path d="M715.915 -32.793C724.802 -22.2874 730.385 -9.2971 735.338 3.54235C740.29 16.3818 745.675 29.1731 755.202 39.1016C764.733 49.0345 776.921 55.456 789.463 61.1296C802.005 66.8031 814.193 73.2247 823.724 83.1575C833.251 93.086 838.636 105.877 843.588 118.717C848.541 131.556 854.124 144.547 863.011 155.052" stroke="#E7FF30" stroke-opacity="0.1" stroke-width="1.97577"/>
<path d="M687.122 -5.73047C696.009 4.77505 701.592 17.7654 706.545 30.6049C711.497 43.4443 716.882 56.2356 726.409 66.1641C735.94 76.097 748.128 82.5185 760.67 88.1921C773.212 93.8656 785.4 100.287 794.931 110.22C804.458 120.149 809.843 132.94 814.795 145.779C819.748 158.619 825.331 171.609 834.218 182.115" stroke="#E7FF30" stroke-opacity="0.1" stroke-width="1.97577"/>
<path d="M658.329 21.332C667.216 31.8376 672.799 44.8279 677.752 57.6674C682.704 70.5068 688.089 83.2981 697.616 93.2266C707.147 103.159 719.335 109.581 731.877 115.255C744.419 120.928 756.607 127.35 766.138 137.282C775.665 147.211 781.05 160.002 786.003 172.842C790.955 185.681 796.538 198.672 805.425 209.177" stroke="#E7FF30" stroke-opacity="0.1" stroke-width="1.97577"/>
</g>
<g clip-path="url(#clip7_294_12451)">
<path d="M514.361 156.648C523.248 167.154 528.83 180.144 533.783 192.984C538.736 205.823 544.12 218.615 553.647 228.543C563.178 238.476 575.366 244.897 587.908 250.571C600.451 256.245 612.638 262.666 622.169 272.599C631.696 282.527 637.081 295.319 642.034 308.158C646.986 320.998 652.569 333.988 661.456 344.494" stroke="#E7FF30" stroke-opacity="0.1" stroke-width="1.97577"/>
<path d="M485.568 183.711C494.455 194.216 500.037 207.207 504.99 220.046C509.943 232.886 515.327 245.677 524.854 255.606C534.385 265.538 546.573 271.96 559.115 277.633C571.658 283.307 583.846 289.729 593.376 299.661C602.903 309.59 608.288 322.381 613.241 335.221C618.194 348.06 623.776 361.051 632.663 371.556" stroke="#E7FF30" stroke-opacity="0.1" stroke-width="1.97577"/>
</g>
<g clip-path="url(#clip8_294_12451)">
<path d="M413.032 -181.953C421.919 -171.448 427.502 -158.457 432.455 -145.618C437.407 -132.778 442.792 -119.987 452.319 -110.059C461.85 -100.126 474.038 -93.7041 486.58 -88.0306C499.123 -82.357 511.31 -75.9355 520.841 -66.0027C530.368 -56.0741 535.753 -43.2828 540.706 -30.4434C545.658 -17.6039 551.241 -4.61355 560.128 5.89197" stroke="#E7FF30" stroke-opacity="0.1" stroke-width="1.97577"/>
<path d="M384.239 -154.891C393.126 -144.385 398.709 -131.395 403.662 -118.555C408.615 -105.716 413.999 -92.9245 423.526 -82.996C433.057 -73.0632 445.245 -66.6416 457.787 -60.9681C470.33 -55.2945 482.517 -48.873 492.048 -38.9402C501.575 -29.0117 506.96 -16.2203 511.913 -3.38087C516.865 9.45858 522.448 22.4489 531.335 32.9545" stroke="#E7FF30" stroke-opacity="0.1" stroke-width="1.97577"/>
<path d="M355.446 -127.828C364.334 -117.323 369.916 -104.332 374.869 -91.4928C379.822 -78.6534 385.206 -65.862 394.733 -55.9335C404.264 -46.0007 416.452 -39.5791 428.994 -33.9056C441.537 -28.232 453.724 -21.8105 463.255 -11.8777C472.782 -1.94915 478.167 10.8422 483.12 23.6816C488.072 36.5211 493.655 49.5114 502.542 60.017" stroke="#E7FF30" stroke-opacity="0.1" stroke-width="1.97577"/>
<path d="M326.654 -100.766C335.541 -90.2601 341.123 -77.2698 346.076 -64.4303C351.029 -51.5909 356.413 -38.7995 365.94 -28.871C375.471 -18.9382 387.659 -12.5166 400.201 -6.84308C412.744 -1.16953 424.931 5.25201 434.462 15.1848C443.989 25.1133 449.374 37.9047 454.327 50.7441C459.279 63.5836 464.862 76.5739 473.749 87.0795" stroke="#E7FF30" stroke-opacity="0.1" stroke-width="1.97577"/>
</g>
<g clip-path="url(#clip9_294_12451)">
<path d="M737.786 163.57C746.673 174.076 752.256 187.066 757.209 199.906C762.161 212.745 767.546 225.536 777.073 235.465C786.604 245.398 798.792 251.819 811.334 257.493C823.876 263.166 836.064 269.588 845.595 279.521C855.122 289.449 860.507 302.241 865.46 315.08C870.412 327.92 875.995 340.91 884.882 351.415" stroke="#E7FF30" stroke-opacity="0.1" stroke-width="1.97577"/>
<path d="M708.993 190.633C717.88 201.138 723.463 214.129 728.416 226.968C733.368 239.808 738.753 252.599 748.28 262.527C757.811 272.46 769.999 278.882 782.541 284.555C795.083 290.229 807.271 296.65 816.802 306.583C826.329 316.512 831.714 329.303 836.667 342.143C841.619 354.982 847.202 367.972 856.089 378.478" stroke="#E7FF30" stroke-opacity="0.1" stroke-width="1.97577"/>
</g>
<g clip-path="url(#clip10_294_12451)">
<path d="M297.857 -73.6992C306.744 -63.1937 312.326 -50.2033 317.279 -37.3639C322.232 -24.5244 327.616 -11.7331 337.143 -1.80461C346.674 8.12822 358.862 14.5498 371.404 20.2233C383.947 25.8969 396.135 32.3184 405.666 42.2512C415.192 52.1798 420.577 64.9711 425.53 77.8105C430.483 90.65 436.065 103.64 444.952 114.146" stroke="#E7FF30" stroke-opacity="0.1" stroke-width="1.97577"/>
<path d="M269.064 -46.6367C277.951 -36.1312 283.533 -23.1408 288.486 -10.3014C293.439 2.53805 298.823 15.3294 308.35 25.2579C317.881 35.1907 330.069 41.6123 342.611 47.2858C355.154 52.9594 367.342 59.3809 376.873 69.3137C386.399 79.2423 391.784 92.0336 396.737 104.873C401.69 117.712 407.272 130.703 416.159 141.208" stroke="#E7FF30" stroke-opacity="0.1" stroke-width="1.97577"/>
<path d="M240.271 -19.5742C249.158 -9.0687 254.74 3.92165 259.693 16.7611C264.646 29.6006 270.03 42.3919 279.557 52.3204C289.088 62.2532 301.276 68.6748 313.818 74.3483C326.361 80.0219 338.549 86.4434 348.08 96.3762C357.607 106.305 362.991 119.096 367.944 131.936C372.897 144.775 378.479 157.765 387.366 168.271" stroke="#E7FF30" stroke-opacity="0.1" stroke-width="1.97577"/>
<path d="M211.478 7.48828C220.365 17.9938 225.947 30.9842 230.9 43.8236C235.853 56.6631 241.238 69.4544 250.764 79.3829C260.295 89.3157 272.483 95.7373 285.026 101.411C297.568 107.084 309.756 113.506 319.287 123.439C328.814 133.367 334.198 146.159 339.151 158.998C344.104 171.837 349.686 184.828 358.573 195.333" stroke="#E7FF30" stroke-opacity="0.1" stroke-width="1.97577"/>
</g>
<g clip-path="url(#clip11_294_12451)">
<path d="M852.958 55.3203C861.845 65.8258 867.428 78.8162 872.381 91.6556C877.333 104.495 882.718 117.286 892.245 127.215C901.776 137.148 913.964 143.569 926.506 149.243C939.048 154.916 951.236 161.338 960.767 171.271C970.294 181.199 975.679 193.991 980.631 206.83C985.584 219.67 991.167 232.66 1000.05 243.165" stroke="#E7FF30" stroke-opacity="0.1" stroke-width="1.97577"/>
<path d="M824.165 82.3828C833.052 92.8883 838.635 105.879 843.588 118.718C848.54 131.558 853.925 144.349 863.452 154.277C872.983 164.21 885.171 170.632 897.713 176.305C910.255 181.979 922.443 188.4 931.974 198.333C941.501 208.262 946.886 221.053 951.838 233.893C956.791 246.732 962.374 259.722 971.261 270.228" stroke="#E7FF30" stroke-opacity="0.1" stroke-width="1.97577"/>
<path d="M795.372 109.445C804.259 119.951 809.842 132.941 814.795 145.781C819.747 158.62 825.132 171.411 834.659 181.34C844.19 191.273 856.378 197.694 868.92 203.368C881.462 209.041 893.65 215.463 903.181 225.396C912.708 235.324 918.093 248.116 923.045 260.955C927.998 273.795 933.581 286.785 942.468 297.29" stroke="#E7FF30" stroke-opacity="0.1" stroke-width="1.97577"/>
<path d="M766.579 136.508C775.466 147.013 781.049 160.004 786.002 172.843C790.954 185.683 796.339 198.474 805.866 208.402C815.397 218.335 827.585 224.757 840.127 230.43C852.669 236.104 864.857 242.525 874.388 252.458C883.915 262.387 889.3 275.178 894.253 288.018C899.205 300.857 904.788 313.847 913.675 324.353" stroke="#E7FF30" stroke-opacity="0.1" stroke-width="1.97577"/>
</g>
</g>
<defs>
<clipPath id="clip0_294_12451">
<rect width="158.061" height="158.061" fill="white" transform="translate(555.103 -43.9727) rotate(46.7749)"/>
</clipPath>
<clipPath id="clip1_294_12451">
<rect width="158.061" height="158.061" fill="white" transform="translate(670.279 -152.223) rotate(46.7749)"/>
</clipPath>
<clipPath id="clip2_294_12451">
<rect width="158.061" height="158.061" fill="white" transform="translate(439.931 64.2773) rotate(46.7749)"/>
</clipPath>
<clipPath id="clip3_294_12451">
<rect width="158.061" height="158.061" fill="white" transform="translate(893.704 -145.301) rotate(46.7749)"/>
</clipPath>
<clipPath id="clip4_294_12451">
<rect width="158.061" height="158.061" fill="white" transform="translate(663.357 71.2031) rotate(46.7749)"/>
</clipPath>
<clipPath id="clip5_294_12451">
<rect width="158.061" height="158.061" fill="white" transform="translate(223.427 -166.07) rotate(46.7749)"/>
</clipPath>
<clipPath id="clip6_294_12451">
<rect width="158.061" height="158.061" fill="white" transform="translate(778.529 -37.0508) rotate(46.7749)"/>
</clipPath>
<clipPath id="clip7_294_12451">
<rect width="158.061" height="158.061" fill="white" transform="translate(548.181 179.453) rotate(46.7749)"/>
</clipPath>
<clipPath id="clip8_294_12451">
<rect width="158.061" height="158.061" fill="white" transform="translate(446.853 -159.148) rotate(46.7749)"/>
</clipPath>
<clipPath id="clip9_294_12451">
<rect width="158.061" height="158.061" fill="white" transform="translate(771.607 186.375) rotate(46.7749)"/>
</clipPath>
<clipPath id="clip10_294_12451">
<rect width="158.061" height="158.061" fill="white" transform="translate(331.677 -50.8945) rotate(46.7749)"/>
</clipPath>
<clipPath id="clip11_294_12451">
<rect width="158.061" height="158.061" fill="white" transform="translate(886.779 78.125) rotate(46.7749)"/>
</clipPath>
</defs>
</svg>
