<svg width="135" height="53" viewBox="0 0 135 53" fill="none" xmlns="http://www.w3.org/2000/svg">
<g clip-path="url(#clip0_427_2721)">
<path d="M13.4115 52.2087C12.8074 52.2087 12.2481 51.8921 11.9412 51.3765L10.0691 48.2375C6.22499 41.7955 2.59477 35.7112 1.35454 33.2433C0.452853 31.4104 -0.000976562 29.4533 -0.000976562 27.4142C-0.000976562 20.0826 6.01578 14.118 13.4115 14.118C20.8074 14.118 26.824 20.0826 26.824 27.4142C26.824 29.4521 26.3703 31.4086 25.4762 33.2297C25.4655 33.2518 25.4536 33.2739 25.442 33.2953C24.1778 35.7962 20.5708 41.8416 16.7527 48.2392L14.8819 51.3765C14.5749 51.8921 14.0156 52.2087 13.4115 52.2087Z" fill="#18A99F"/>
<path d="M16.8553 40.4801C15.8954 40.4801 15.1109 40.1754 14.5017 39.5658C13.8925 38.9565 13.5879 38.1624 13.5879 37.1835V26.5182L13.8448 25.8083C14.2774 25.3754 14.2774 25.3754 14.6401 24.9391C15.6554 24.2189 16.2244 23.8605 17.1322 23.4276H17.5753V36.574C17.5753 38.0515 19.4694 38.1444 20.9838 37.7115C21.6326 37.5261 22.1254 37.3035 22.5499 37.1003C22.9929 36.8972 23.4084 36.6294 23.7959 36.2969V36.574C23.1868 37.3497 22.5499 37.9347 21.8489 38.5772C20.9802 39.3738 19.4694 40.4801 16.8553 40.4801Z" fill="white"/>
<path d="M83.1157 40.449L83.095 37.4986C82.7628 38.2189 82.2643 38.8145 81.5997 39.2854C80.9351 39.7425 80.222 39.971 79.4607 39.971C78.7129 39.971 78.0414 39.7357 77.4461 39.2647C76.8507 38.7936 76.38 38.1497 76.0339 37.3325C75.6879 36.5014 75.5146 35.5664 75.5146 34.5276C75.5146 33.364 75.7294 32.353 76.1586 31.4941C76.6016 30.6355 77.2107 29.9776 77.986 29.5204C78.7615 29.0495 79.6543 28.8139 80.6652 28.8139C81.2328 28.8139 81.6967 28.904 82.0565 29.0841C82.4165 29.2502 82.7419 29.5412 83.0327 29.9567V25.9467C83.0327 25.4481 82.8734 25.0464 82.5549 24.7418C82.2503 24.4371 81.8488 24.2847 81.3504 24.2847V24.0768H83.4688C84.1609 24.0768 84.6871 24.0076 85.0471 23.8692C85.4071 23.7306 85.6633 23.5367 85.8155 23.2874H86.0231V37.7895C86.0231 38.2881 86.1755 38.6898 86.4801 38.9946C86.7847 39.2993 87.193 39.4517 87.7055 39.4517V39.6594H85.587C84.9779 39.6594 84.4932 39.7217 84.1334 39.8463C83.7872 39.971 83.5172 40.172 83.3233 40.449H83.1157ZM80.6029 39.1401C80.9212 39.1401 81.2397 39.0429 81.558 38.8491C81.8903 38.6414 82.188 38.3713 82.4511 38.0388C82.7142 37.7065 82.9081 37.3531 83.0327 36.9792V31.9098C82.9635 31.0786 82.7557 30.4139 82.4096 29.9152C82.0773 29.4166 81.6412 29.1673 81.1013 29.1673C80.3813 29.1673 79.8205 29.6242 79.419 30.5385C79.0314 31.4526 78.8376 32.803 78.8376 34.59C78.8376 37.6233 79.4261 39.1401 80.6029 39.1401Z" fill="white"/>
<path d="M92.6442 39.9058C91.689 39.9058 90.8374 39.6705 90.0899 39.1996C89.3561 38.7284 88.7815 38.0776 88.3661 37.2465C87.9508 36.4016 87.7432 35.4389 87.7432 34.3584C87.7432 33.2505 87.9714 32.2809 88.4284 31.4498C88.8853 30.6186 89.5082 29.9747 90.2975 29.5175C91.1005 29.0466 92.0073 28.8111 93.0182 28.8111C93.8626 28.8111 94.6102 28.9774 95.261 29.3097C95.9256 29.6422 96.4518 30.1131 96.8393 30.7227C97.2408 31.3182 97.4693 32.0107 97.5247 32.8002L97.5454 33.1118H90.5674V33.2159C90.5674 34.6841 90.8929 35.8612 91.5435 36.7478C92.1943 37.6205 93.0665 38.0568 94.1603 38.0568C94.8249 38.0568 95.4549 37.8975 96.0503 37.579C96.6594 37.2465 97.151 36.8033 97.5247 36.2492L97.7115 36.3115C97.4762 37.018 97.1093 37.6413 96.6108 38.1814C96.1124 38.7216 95.5241 39.1441 94.8456 39.4489C94.1672 39.7534 93.4334 39.9058 92.6442 39.9058ZM90.5883 32.8002H94.8041C94.8041 31.706 94.6242 30.8196 94.2641 30.1408C93.9181 29.4621 93.4265 29.1227 92.7897 29.1227C92.1805 29.1227 91.675 29.4552 91.2735 30.12C90.872 30.785 90.6435 31.6782 90.5883 32.8002Z" fill="white"/>
<path d="M102.144 39.9475C101.784 39.9475 101.514 39.9335 101.334 39.9058C101.154 39.8781 100.981 39.8435 100.815 39.802C100.663 39.7605 100.455 39.7259 100.192 39.6982C99.9291 39.6705 99.5276 39.6565 98.9877 39.6565L98.4893 35.7506H98.7592C98.9806 37.0526 99.3961 38.0359 100.005 38.7009C100.614 39.3519 101.279 39.6773 101.999 39.6773C102.705 39.6773 103.238 39.5318 103.598 39.241C103.972 38.9502 104.159 38.5554 104.159 38.0568C104.159 37.7382 104.076 37.4612 103.91 37.2256C103.757 36.9763 103.487 36.727 103.1 36.4777C102.712 36.2146 102.186 35.9029 101.521 35.5427L100.919 35.2104C100.158 34.781 99.59 34.2824 99.216 33.7145C98.8562 33.1327 98.676 32.5094 98.676 31.8446C98.676 30.9026 99.0152 30.1617 99.6938 29.6214C100.386 29.0812 101.307 28.8111 102.456 28.8111C102.747 28.8111 102.982 28.825 103.162 28.8528C103.342 28.8803 103.515 28.9151 103.681 28.9566C103.847 28.9981 104.055 29.0327 104.304 29.0604C104.553 29.0881 104.886 29.1021 105.301 29.1021L105.592 32.4471H105.343C105.26 31.796 105.073 31.2213 104.782 30.7227C104.505 30.2101 104.173 29.8154 103.785 29.5384C103.397 29.2474 103.003 29.1021 102.601 29.1021C102.075 29.1021 101.653 29.2405 101.334 29.5175C101.03 29.7946 100.877 30.1823 100.877 30.681C100.877 31.0549 100.995 31.4012 101.231 31.7199C101.48 32.0245 101.95 32.357 102.643 32.7172L103.266 33.0289C104.235 33.5275 104.941 34.0468 105.384 34.5871C105.827 35.1272 106.049 35.8198 106.049 36.6647C106.049 38.8256 104.747 39.9198 102.144 39.9475Z" fill="white"/>
<path d="M106.388 39.6569V39.4492H106.409C106.907 39.4492 107.308 39.2968 107.613 38.9921C107.918 38.6873 108.07 38.2856 108.07 37.787V30.9723C108.07 30.446 107.959 30.0374 107.738 29.7464C107.53 29.4556 107.08 29.3101 106.388 29.3101V29.1024H108.506C109.212 29.1024 109.752 29.0261 110.126 28.8738C110.472 28.7214 110.714 28.5344 110.853 28.3128H111.06V37.787C111.06 38.2856 111.213 38.6873 111.517 38.9921C111.822 39.2968 112.223 39.4492 112.722 39.4492H112.743V39.6569H106.388ZM109.544 27.0039C109.046 27.0039 108.631 26.8446 108.298 26.5261C107.98 26.1936 107.821 25.7781 107.821 25.2795C107.821 24.7808 107.98 24.3722 108.298 24.0537C108.631 23.7212 109.046 23.5551 109.544 23.5551C110.029 23.5551 110.43 23.7212 110.749 24.0537C111.081 24.386 111.247 24.7946 111.247 25.2795C111.247 25.7641 111.081 26.1729 110.749 26.5052C110.43 26.8377 110.029 27.0039 109.544 27.0039Z" fill="white"/>
<path d="M112.534 39.658V39.4504H112.555C113.053 39.4504 113.455 39.298 113.76 38.9932C114.064 38.6885 114.216 38.2868 114.216 37.7881V30.9735C114.216 30.4471 114.106 30.0385 113.884 29.7475C113.677 29.4567 113.226 29.3112 112.534 29.3112V29.1036H114.59C115.324 29.1036 115.878 29.0342 116.252 28.8957C116.626 28.7434 116.889 28.5495 117.041 28.3139H117.145L117.165 31.7214C117.346 31.3058 117.574 30.8695 117.851 30.4125C118.141 29.9554 118.501 29.5745 118.931 29.2697C119.374 28.9512 119.9 28.7919 120.509 28.7919C120.717 28.7919 120.938 28.8126 121.174 28.8543C121.409 28.8957 121.658 28.9718 121.921 29.0827L121.111 31.5136C120.613 31.2366 120.177 31.0427 119.803 30.9318C119.443 30.8211 119.125 30.7657 118.848 30.7657C118.377 30.7657 118.024 30.9112 117.789 31.202C117.567 31.4928 117.373 31.839 117.207 32.2407V37.7881C117.207 38.2868 117.359 38.6885 117.664 38.9932C117.968 39.298 118.37 39.4504 118.868 39.4504H118.889V39.658H112.534Z" fill="white"/>
<path d="M126.675 39.9058C125.719 39.9058 124.868 39.6705 124.12 39.1996C123.387 38.7284 122.812 38.0776 122.397 37.2465C121.981 36.4016 121.773 35.4389 121.773 34.3584C121.773 33.2505 122.002 32.2809 122.459 31.4498C122.916 30.6186 123.539 29.9747 124.328 29.5175C125.131 29.0466 126.038 28.8111 127.048 28.8111C127.893 28.8111 128.641 28.9774 129.291 29.3097C129.956 29.6422 130.482 30.1131 130.87 30.7227C131.271 31.3182 131.5 32.0107 131.555 32.8002L131.576 33.1118H124.598V33.2159C124.598 34.6841 124.923 35.8612 125.574 36.7478C126.225 37.6205 127.097 38.0568 128.191 38.0568C128.855 38.0568 129.485 37.8975 130.081 37.579C130.69 37.2465 131.181 36.8033 131.555 36.2492L131.742 36.3115C131.507 37.018 131.14 37.6413 130.641 38.1814C130.143 38.7216 129.554 39.1441 128.876 39.4489C128.198 39.7534 127.464 39.9058 126.675 39.9058ZM124.619 32.8002H128.835C128.835 31.706 128.654 30.8196 128.295 30.1408C127.948 29.4621 127.457 29.1227 126.82 29.1227C126.211 29.1227 125.705 29.4552 125.304 30.12C124.902 30.785 124.674 31.6782 124.619 32.8002Z" fill="white"/>
<path d="M27.8154 39.658V39.4504H27.8361C28.3345 39.4504 28.736 39.298 29.0408 38.9932C29.3454 38.6885 29.4975 38.2868 29.4975 37.7881V30.9735C29.4975 30.4471 29.3868 30.0385 29.1652 29.7475C28.9576 29.4567 28.5077 29.3112 27.8154 29.3112V29.1036H29.8713C30.6051 29.1036 31.159 29.0342 31.5328 28.8957C31.9066 28.7434 32.1696 28.5495 32.322 28.3139H32.4258L32.4467 31.7214C32.6266 31.3058 32.8551 30.8695 33.1319 30.4125C33.4227 29.9554 33.7827 29.5745 34.2118 29.2697C34.6549 28.9512 35.1811 28.7919 35.7902 28.7919C35.9979 28.7919 36.2195 28.8126 36.4548 28.8543C36.6902 28.8957 36.9393 28.9718 37.2024 29.0827L36.3925 31.5136C35.8941 31.2366 35.458 31.0427 35.0842 30.9318C34.7242 30.8211 34.4056 30.7657 34.1288 30.7657C33.6581 30.7657 33.3049 30.9112 33.0696 31.202C32.8482 31.4928 32.6543 31.839 32.4882 32.2407V37.7881C32.4882 38.2868 32.6403 38.6885 32.9451 38.9932C33.2497 39.298 33.6512 39.4504 34.1496 39.4504H34.1703V39.658H27.8154Z" fill="#18A99F"/>
<path d="M40.1415 39.9469C39.297 39.9469 38.6185 39.7182 38.1063 39.2613C37.5939 38.8041 37.3379 38.2017 37.3379 37.4537C37.3379 37.135 37.3931 36.8373 37.504 36.5602C37.6147 36.2694 37.8224 35.9853 38.1269 35.7085C38.4455 35.4314 38.8816 35.1475 39.4355 34.8565C39.9891 34.5519 40.7229 34.2332 41.6368 33.9009L43.5683 33.1944V31.6362C43.5683 30.8467 43.4436 30.2234 43.1943 29.7663C42.9452 29.2953 42.5991 29.0598 42.1559 29.0598C41.6298 29.0738 41.1799 29.42 40.8061 30.0988C40.4461 30.7773 40.2039 31.7193 40.0792 32.9243L37.8363 31.6362C38.0717 31.0683 38.4317 30.5697 38.9162 30.1402C39.4009 29.7108 39.9545 29.3783 40.5776 29.143C41.2145 28.9074 41.8791 28.7898 42.5714 28.7898C43.7482 28.7898 44.7036 29.1221 45.4374 29.7871C46.1849 30.4379 46.5587 31.3314 46.5587 32.4673V37.4744C46.5587 38.2778 46.8287 38.6795 47.3686 38.6795C47.6871 38.6795 47.9986 38.5062 48.3033 38.16L48.4693 38.3055C48.1095 38.7902 47.6734 39.185 47.161 39.4898C46.6488 39.7945 46.1503 39.9469 45.6656 39.9469C45.1397 39.9469 44.6827 39.7668 44.295 39.4066C43.9212 39.0466 43.6858 38.5686 43.5889 37.973C42.9106 38.6657 42.3152 39.1712 41.803 39.4898C41.3046 39.7945 40.7507 39.9469 40.1415 39.9469ZM41.6992 38.6586C42.0037 38.6586 42.2943 38.5825 42.5714 38.4301C42.862 38.2778 43.1874 38.0284 43.5474 37.6822L43.5683 33.4646L42.7375 33.7762C42.0315 34.0393 41.4913 34.3095 41.1176 34.5865C40.7438 34.8496 40.4807 35.1475 40.3283 35.4798C40.1899 35.8123 40.1207 36.1931 40.1207 36.6226C40.1207 37.2182 40.2662 37.7099 40.5568 38.0977C40.8614 38.4716 41.2422 38.6586 41.6992 38.6586Z" fill="#18A99F"/>
<path d="M52.0988 39.9912L47.966 30.4338C47.8276 30.1153 47.6408 29.8522 47.4052 29.6444C47.1839 29.4365 46.8722 29.3258 46.4707 29.3119V29.1042H52.2858V29.3119C51.8011 29.3673 51.4828 29.582 51.3304 29.956C51.192 30.33 51.2404 30.8009 51.4757 31.3688L53.615 36.376L55.7332 31.4934C55.8716 31.1749 55.9408 30.8633 55.9408 30.5585C55.9408 30.2122 55.837 29.9283 55.6294 29.7067C55.4217 29.4851 55.1309 29.3536 54.7572 29.3119V29.1042H58.0384V29.3119C57.6784 29.3951 57.3323 29.6029 57 29.9352C56.6677 30.2677 56.3701 30.7248 56.107 31.3064L52.2858 39.9912H52.0988Z" fill="#18A99F"/>
<path d="M62.0555 39.9058C61.1001 39.9058 60.2487 39.6705 59.501 39.1996C58.7672 38.7284 58.1927 38.0776 57.7774 37.2465C57.3619 36.4016 57.1543 35.4389 57.1543 34.3584C57.1543 33.2505 57.3828 32.2809 57.8395 31.4498C58.2965 30.6186 58.9196 29.9747 59.7088 29.5175C60.5118 29.0466 61.4186 28.8111 62.4293 28.8111C63.2738 28.8111 64.0215 28.9774 64.6722 29.3097C65.3367 29.6422 65.8629 30.1131 66.2506 30.7227C66.6522 31.3182 66.8806 32.0107 66.9359 32.8002L66.9567 33.1118H59.9788V33.2159C59.9788 34.6841 60.304 35.8612 60.9548 36.7478C61.6054 37.6205 62.4777 38.0568 63.5715 38.0568C64.2361 38.0568 64.866 37.8975 65.4614 37.579C66.0705 37.2465 66.5621 36.8033 66.9359 36.2492L67.1229 36.3115C66.8875 37.018 66.5206 37.6413 66.0222 38.1814C65.5237 38.7216 64.9352 39.1441 64.2569 39.4489C63.5786 39.7534 62.8448 39.9058 62.0555 39.9058ZM59.9994 32.8002H64.2154C64.2154 31.706 64.0353 30.8196 63.6753 30.1408C63.3292 29.4621 62.8377 29.1227 62.2008 29.1227C61.5917 29.1227 61.0864 29.4552 60.6849 30.12C60.2834 30.785 60.0549 31.6782 59.9994 32.8002Z" fill="#18A99F"/>
<path d="M66.8936 39.6594V39.4517C67.392 39.4517 67.7935 39.3062 68.0981 39.0154C68.4166 38.7106 68.5759 38.3021 68.5759 37.7895V25.9467C68.5759 25.4481 68.4166 25.0464 68.0981 24.7418C67.7935 24.4371 67.392 24.2847 66.8936 24.2847V24.0768H69.012C69.718 24.0768 70.258 24.0007 70.6317 23.8484C70.978 23.696 71.2202 23.509 71.3587 23.2874H71.5663V37.7895C71.5663 38.3021 71.7187 38.7106 72.0232 39.0154C72.3416 39.3062 72.7502 39.4517 73.2486 39.4517V39.6594H66.8936Z" fill="#18A99F"/>
<path d="M16.024 14.373C22.1734 15.5813 26.824 20.9692 26.824 27.4147C26.824 27.4355 26.8228 27.4564 26.8228 27.4772C26.8133 25.2839 26.2784 23.2153 25.3368 21.3903C22.9452 23.4322 19.4578 25.1912 15.3889 26.2092C9.15469 27.7686 3.30675 27.1502 0.251691 24.9359C0.0905048 25.7569 0.00360332 26.6044 -0.000554041 27.4718C-0.000632972 27.4527 -0.000976562 27.4337 -0.000976562 27.4147C-0.000957282 20.9844 4.62752 15.6071 10.7552 14.3818C5.46054 15.4461 1.29393 19.6295 0.251691 24.9342C3.36291 26.1705 7.85239 26.2537 12.4964 24.8946C17.2536 23.5021 21.0585 20.9224 22.9711 18.1262C21.1192 16.2436 18.7165 14.905 16.024 14.373Z" fill="white"/>
<path d="M15.4763 14.2761C15.6559 14.3037 15.8341 14.3357 16.0112 14.3703C15.8224 14.3332 15.6321 14.3001 15.4404 14.271L15.4763 14.2761Z" fill="white"/>
<path d="M11.1299 14.3129C11.1758 14.3051 11.2216 14.297 11.2676 14.2897L11.3073 14.2838C11.2481 14.2931 11.1889 14.3028 11.1299 14.3129Z" fill="white"/>
<path d="M15.1656 14.2349C15.2559 14.2466 15.3459 14.2594 15.4356 14.2729C15.3399 14.2584 15.2438 14.2452 15.1475 14.2328L15.1656 14.2349Z" fill="white"/>
<path d="M13.7582 14.1232C13.8333 14.1251 13.9082 14.1285 13.983 14.1316C13.8902 14.1277 13.7973 14.1245 13.7041 14.1223L13.7582 14.1232Z" fill="white"/>
<path d="M132.414 26.9652C132.056 26.9652 131.743 26.8924 131.476 26.7466C131.215 26.5949 131.012 26.3885 130.866 26.1274C130.72 25.8603 130.647 25.5537 130.647 25.2076C130.647 24.8494 130.72 24.5398 130.866 24.2787C131.018 24.0116 131.224 23.8052 131.485 23.6595C131.752 23.5077 132.062 23.4318 132.414 23.4318C132.766 23.4318 133.073 23.5077 133.334 23.6595C133.601 23.8052 133.807 24.0116 133.953 24.2787C134.105 24.5398 134.181 24.8494 134.181 25.2076C134.181 25.5537 134.108 25.8603 133.962 26.1274C133.817 26.3885 133.61 26.5949 133.343 26.7466C133.082 26.8924 132.772 26.9652 132.414 26.9652ZM132.414 26.8104C132.9 26.8104 133.285 26.6677 133.571 26.3824C133.856 26.091 133.999 25.6994 133.999 25.2076C133.999 24.7037 133.853 24.3091 133.562 24.0238C133.276 23.7323 132.894 23.5866 132.414 23.5866C131.935 23.5866 131.549 23.7323 131.258 24.0238C130.972 24.3091 130.83 24.7037 130.83 25.2076C130.83 25.6994 130.972 26.091 131.258 26.3824C131.543 26.6677 131.928 26.8104 132.414 26.8104ZM131.531 26.2549V26.1911C131.677 26.1911 131.749 26.1274 131.749 25.9999V24.4153C131.749 24.2696 131.677 24.1968 131.531 24.1968V24.133H132.441C132.636 24.133 132.791 24.1846 132.906 24.2879C133.027 24.385 133.088 24.5186 133.088 24.6885C133.088 24.8282 133.046 24.9466 132.961 25.0437C132.882 25.1408 132.772 25.1985 132.633 25.2167C132.712 25.241 132.791 25.329 132.869 25.4808L133.161 25.9908C133.246 26.1244 133.334 26.1911 133.425 26.1911V26.2549H132.86C132.794 26.1699 132.742 26.0758 132.706 25.9726L132.432 25.4626C132.39 25.3594 132.35 25.2926 132.314 25.2623C132.29 25.238 132.25 25.2258 132.196 25.2258H132.168V25.9999C132.168 26.1274 132.244 26.1911 132.396 26.1911V26.2549H131.531ZM132.168 25.1712H132.305C132.566 25.1712 132.696 25.0073 132.696 24.6794C132.696 24.5216 132.663 24.4002 132.596 24.3152C132.53 24.2302 132.438 24.1877 132.323 24.1877H132.168V25.1712Z" fill="white"/>
<path d="M34.5844 1.61328C35.2272 2.17655 35.7475 2.68755 36.2303 3.22076C36.8476 3.90214 37.4041 4.61977 37.9584 5.42249L38.4967 6.28445L38.713 6.77159C38.8927 7.27881 38.9306 7.82161 38.9245 8.32833L38.9129 8.66078C39.2715 8.75755 39.5421 8.89553 39.7791 9.06979C40.0147 9.24314 40.217 9.45241 40.3599 9.70894L40.5981 10.1839L40.8415 10.5057L41.0801 10.6996L40.4105 10.8272C40.1391 10.9071 39.8868 11.0174 39.6308 11.1501C39.3764 11.282 39.1186 11.4359 38.9348 11.6578L38.6687 12.0615C38.4671 12.3856 38.2285 12.678 37.9689 12.9441C37.5235 13.4004 37.0165 13.7791 36.4382 14.0005C35.844 14.2281 35.1746 14.2896 34.5511 14.4955L33.9379 14.7569C33.5256 14.9779 33.1375 15.2891 32.7635 15.5842L31.7689 16.3661L30.4126 17.457L28.5645 18.9083L29.6434 17.8482L30.9147 16.687L31.9182 15.7673L32.4193 15.1957L31.7146 15.6934C30.7499 16.335 29.7363 16.9087 28.7507 17.4391C28.123 17.777 27.5065 18.0974 26.795 18.3903C26.3174 18.5868 25.7971 18.7709 25.1406 18.9365L27.5065 17.6485C28.4283 17.1513 29.3505 16.6634 30.2385 16.1239C30.98 15.6734 31.6978 15.187 32.4073 14.6637C33.4168 13.9191 34.4092 13.0999 35.1503 12.1105C35.6493 11.4444 36.0342 10.7012 36.2726 9.90489C36.5869 8.8554 36.6466 7.71369 36.4845 6.63742C36.3426 5.69666 36.0312 4.80591 35.6659 3.91208C35.3611 3.1659 35.0187 2.41757 34.5844 1.61328Z" fill="#18A99F"/>
<path d="M34.2474 12.7401C34.501 12.4915 34.7035 12.2505 34.8875 12.0034L35.4863 11.0676C35.6355 10.7964 35.7749 10.5115 35.8716 10.1703C34.91 10.4324 34.2027 10.6039 33.4972 10.6928C32.2458 10.8504 31.0004 10.7478 29.8001 10.4083C28.8121 10.1288 27.8547 9.68882 26.8682 9.00653C27.0918 9.53439 27.3407 9.93233 27.6341 10.2854C28.2552 11.0325 29.0762 11.5784 29.9418 12.0002C30.7124 12.3758 31.5182 12.653 32.3793 12.7619C32.95 12.8341 33.545 12.8323 34.2474 12.7401Z" fill="#18A99F"/>
</g>
<defs>
<clipPath id="clip0_427_2721">
<rect width="134.374" height="52.2116" fill="white"/>
</clipPath>
</defs>
</svg>
